<?xml version="1.0"?>
<svg xmlns="http://www.w3.org/2000/svg" viewBox="0 0 50 50">
    <path d="M 16.90625 10.96875 A 1.0001 1.0001 0 0 0 16.78125 11 L 2 11 A 1.0001 1.0001 0 0 0 1.90625 11 A 1.0001 1.0001 0 0 0 1 12 L 1 38 A 1.0001 1.0001 0 0 0 2 39 L 48 39 A 1.0001 1.0001 0 0 0 49 38 L 49 12 A 1.0001 1.0001 0 0 0 48 11 L 33.1875 11 A 1.0001 1.0001 0 0 0 32.78125 11 L 17.1875 11 A 1.0001 1.0001 0 0 0 16.90625 10.96875 z M 3 13 L 16 13 L 16 37 L 3 37 L 3 13 z M 18 13 L 32 13 L 32 37 L 18 37 L 18 13 z M 34 13 L 47 13 L 47 37 L 34 37 L 34 13 z M 35.625 14 C 35.591 14.357 35.5625 14.739 35.5625 15.125 C 35.5625 16.828 35.90575 18.2555 36.59375 19.3125 C 37.44475 20.7655 38.8895 21.53125 40.6875 21.53125 C 43.4655 21.53125 45.4375 19.705 45.4375 17.125 C 45.4385 15.829 44.9145 14.74 44.0625 14 L 38.78125 14 C 38.54225 14.242 38.3435 14.52075 38.1875 14.84375 L 38.03125 14.84375 C 38.02525 14.54875 38.0405 14.27 38.0625 14 L 35.625 14 z M 40.6875 15.03125 C 41.9865 15.03125 42.90625 15.95475 42.90625 17.21875 C 42.90625 18.46475 41.92925 19.40625 40.65625 19.40625 C 39.38325 19.40625 38.4375 18.4515 38.4375 17.1875 C 38.4375 15.9495 39.3895 15.03125 40.6875 15.03125 z M 9.375 18.625 C 6.322 18.625 4.4375 21.014 4.4375 25.125 C 4.4375 29.244 6.305 31.65625 9.375 31.65625 C 12.445 31.65625 14.3125 29.227 14.3125 25.125 C 14.3125 21.006 12.42 18.625 9.375 18.625 z M 25 18.625 C 21.947 18.625 20.0625 21.014 20.0625 25.125 C 20.0625 29.244 21.93 31.65625 25 31.65625 C 28.07 31.65625 29.9375 29.227 29.9375 25.125 C 29.9375 21.006 28.045 18.625 25 18.625 z M 9.375 20.75 C 10.794 20.75 11.6875 22.235 11.6875 25.125 C 11.6875 28.032 10.802 29.5625 9.375 29.5625 C 7.956 29.5625 7.09375 28.023 7.09375 25.125 C 7.09375 22.243 7.965 20.75 9.375 20.75 z M 25 20.75 C 26.419 20.75 27.28125 22.235 27.28125 25.125 C 27.28125 28.032 26.428 29.5625 25 29.5625 C 23.581 29.5625 22.71875 28.023 22.71875 25.125 C 22.71875 22.243 23.59 20.75 25 20.75 z M 36.125 25 L 36.125 27.15625 L 42.28125 27.15625 L 42.28125 27.3125 L 37.71875 36 L 40.40625 36 L 44.875 27.15625 L 44.875 25 L 36.125 25 z"/>
</svg>
