<?xml version="1.0" standalone="no"?>
<!DOCTYPE svg PUBLIC "-//W3C//DTD SVG 20010904//EN"
 "http://www.w3.org/TR/2001/REC-SVG-20010904/DTD/svg10.dtd">
<svg version="1.0" xmlns="http://www.w3.org/2000/svg"
 width="700.000000pt" height="700.000000pt" viewBox="0 0 700.000000 700.000000"
 preserveAspectRatio="xMidYMid meet">
<metadata>
Created by potrace 1.11, written by Peter Selinger 2001-2013
</metadata>
<g transform="translate(0.000000,700.000000) scale(0.100000,-0.100000)"
fill="#000000" stroke="none">
<path d="M3078 6342 c-13 -3 -15 -77 -15 -655 l0 -652 -656 -3 -657 -2 0 -435
c0 -239 3 -435 8 -436 4 -1 296 -2 649 -2 353 -1 645 -5 649 -10 4 -4 7 -297
7 -652 0 -468 3 -645 11 -648 6 -2 202 -3 436 -3 l425 1 0 655 0 656 640 -1
c352 0 648 1 658 3 16 4 17 33 17 438 l0 434 -656 2 -657 3 -1 654 -1 655
-421 0 c-231 1 -427 0 -436 -2z"/>
<path d="M1808 1522 l-58 -3 0 -429 c0 -237 3 -430 8 -431 24 -3 3460 -4 3475
-1 16 4 17 33 17 433 l0 429 -272 0 c-150 0 -912 2 -1693 3 -781 1 -1446 1
-1477 -1z"/>
</g>
</svg>
