<?xml version="1.0" standalone="no"?>
<!DOCTYPE svg PUBLIC "-//W3C//DTD SVG 20010904//EN"
 "http://www.w3.org/TR/2001/REC-SVG-20010904/DTD/svg10.dtd">
<svg version="1.0" xmlns="http://www.w3.org/2000/svg"
 width="700.000000pt" height="700.000000pt" viewBox="0 0 700.000000 700.000000"
 preserveAspectRatio="xMidYMid meet">
<metadata>
Created by potrace 1.11, written by Peter Selinger 2001-2013
</metadata>
<g transform="translate(0.000000,700.000000) scale(0.100000,-0.100000)"
fill="#000000" stroke="none">
<path d="M1293 5460 l-1071 -5 -27 -25 c-59 -55 -55 82 -55 -1933 l0 -1854 23
-34 c12 -19 38 -42 57 -51 33 -17 211 -18 3280 -18 3070 0 3247 1 3279 18 19
9 44 30 55 45 l21 28 3 1857 c2 1753 1 1859 -15 1891 -10 19 -31 44 -46 55
l-28 21 -2202 5 c-1211 3 -2684 3 -3274 0z m947 -1960 l0 -1680 -910 0 -910 0
0 1680 0 1680 910 0 910 0 0 -1680z m2240 0 l0 -1680 -980 0 -980 0 0 1680 0
1680 980 0 980 0 0 -1680z m2100 0 l0 -1680 -910 0 -910 0 0 1680 0 1680 910
0 910 0 0 -1680z"/>
<path d="M1199 4385 c-2 -1 -17 -5 -34 -8 -16 -3 -56 -14 -88 -25 -237 -84
-388 -306 -443 -650 -9 -60 -12 -333 -4 -392 22 -154 28 -186 55 -265 75 -224
212 -373 407 -442 96 -34 258 -42 368 -19 157 33 304 135 390 272 121 191 174
472 147 776 -6 67 -11 99 -33 206 -14 69 -78 219 -118 277 -91 131 -218 221
-366 259 -44 12 -272 21 -281 11z m216 -314 c84 -37 155 -142 189 -284 40
-161 40 -414 1 -617 -17 -84 -73 -190 -128 -242 -100 -92 -256 -85 -345 17
-93 105 -135 271 -136 530 -1 316 68 520 198 587 75 39 146 42 221 9z"/>
<path d="M3310 4366 c-247 -72 -404 -265 -472 -583 -17 -78 -22 -135 -22 -278
-1 -279 20 -396 107 -575 42 -88 63 -117 126 -180 128 -127 263 -180 460 -178
184 1 318 55 436 173 114 115 180 248 221 447 20 101 26 382 11 508 -14 113
-46 222 -98 328 -42 87 -63 117 -127 181 -88 88 -164 132 -279 162 -106 27
-259 25 -363 -5z m300 -298 c55 -23 115 -100 149 -187 44 -115 56 -203 55
-411 -1 -151 -5 -202 -22 -278 -51 -223 -156 -337 -303 -327 -103 6 -173 58
-227 168 -57 116 -77 235 -77 457 1 206 19 317 72 429 73 155 208 211 353 149z"/>
<path d="M4986 5018 c-11 -40 2 -330 17 -408 63 -310 243 -532 484 -595 87
-23 120 -27 213 -28 321 -1 580 189 645 473 21 91 14 256 -14 333 -27 77 -71
152 -119 205 l-40 42 -369 0 -370 0 -25 -25 c-13 -13 -33 -40 -43 -60 -11 -19
-24 -34 -30 -32 -5 2 -9 29 -9 60 l2 57 -168 0 c-165 0 -168 0 -174 -22z m828
-145 c57 -18 129 -80 155 -133 113 -224 -46 -467 -297 -454 -78 4 -137 30
-195 83 -64 60 -91 126 -91 226 1 61 6 91 23 125 69 147 232 208 405 153z"/>
<path d="M5059 3478 c0 -13 -2 -80 -2 -151 l-2 -127 60 0 c33 -1 228 -1 433
-1 254 0 372 -4 372 -11 0 -10 -58 -122 -280 -543 -26 -49 -73 -139 -105 -200
-73 -141 -156 -297 -212 -402 l-44 -83 189 0 189 0 228 453 c126 248 267 529
314 622 l86 170 -2 130 c-1 72 -2 138 -2 148 -1 16 -37 17 -611 17 l-610 0 -1
-22z"/>
</g>
</svg>
